# xmcd CD database file
#
# Track frame offsets:
#	150
#	19398
#	34656
#	49773
#	67583
#	86073
#	104520
#	122936
#	137745
#	154166
#	172887
#
# Disc length: 2612 seconds
#
# Revision: 1
# Processed by: cddbd v1.5.2PL0 Copyright (c) Steve Scherf et al.
# Submitted via: CDex 1.51
#
DISCID=8e0a320b
DTITLE=Kevin Kern - Enchanted Piano
DYEAR=2012
DGENRE=New Age
TTITLE0=Pastel Reflections
TTITLE1=Through The Arbor
TTITLE2=Imagination's Key
TTITLE3=A Gentle Whisper
TTITLE4=Sundial Dreams
TTITLE5=Childhood Remembered
TTITLE6=Remembering The Light
TTITLE7=I Am Always Right Here
TTITLE8=Into The Realm
TTITLE9=Hide And Seek
TTITLE10=The Enchanted Garden
EXTD=YEAR: 2012
EXTT0=
EXTT1=
EXTT2=
EXTT3=
EXTT4=
EXTT5=
EXTT6=
EXTT7=
EXTT8=
EXTT9=
EXTT10=
PLAYORDER=
